<svg xmlns="http://www.w3.org/2000/svg" xmlns:xlink="http://www.w3.org/1999/xlink" version="1.1" x="0px" y="0px" viewBox="0 0 100 125" enable-background="new 0 0 100 100" xml:space="preserve"><g><g><path d="M50,6c18.468,0,33.545,14.802,33.99,33.165c-2.709-0.866-9.314-1.764-25.704-2.042c-1.212-3.511-4.516-5.901-8.286-5.901    c-3.776,0-7.081,2.395-8.29,5.913c-16.393,0.299-22.993,1.193-25.7,2.049C16.444,20.811,31.525,6,50,6 M50,5    C30.67,5,15,20.67,15,40c0,0.289,0.015,0.574,0.022,0.861c0.392-1.575,13.013-2.496,27.438-2.739    c0.841-3.386,3.893-5.899,7.54-5.899c3.643,0,6.692,2.508,7.537,5.889c14.427,0.224,27.05,1.133,27.441,2.748    C84.985,40.573,85,40.288,85,40C85,20.67,69.33,5,50,5L50,5z"/></g><g><path d="M41.762,43.012c1.252,3.431,4.534,5.766,8.238,5.766c3.698,0,6.979-2.33,8.234-5.755    c14.71,0.271,23.067,1.144,25.391,1.973c-0.944,6.41-3.692,12.378-7.973,17.3c-4.729,5.436-10.293,11.905-15.703,18.668L50,93.399    l-9.949-12.436c-5.569-6.961-11.309-13.624-15.688-18.651c-4.293-4.929-7.047-10.909-7.99-17.332    C18.677,44.14,27.031,43.264,41.762,43.012 M50,72.111c14.941,0,27.784-10.139,31.231-24.657l0.251-1.058l-1.076-0.162    c-2.413-0.363-8.265-1.012-20.356-1.285l-0.584-0.013l-0.298,0.503c-1.914,3.225-5.427,5.228-9.168,5.228    c-3.748,0-7.264-2.008-9.176-5.24l-0.298-0.503l-0.584,0.012c-12.105,0.258-17.95,0.909-20.356,1.274l-1.073,0.163l0.25,1.056    c1.643,6.942,5.644,13.227,11.267,17.699C35.693,69.631,42.785,72.111,50,72.111 M42.491,42    c-13.41,0.208-25.268,1.006-27.205,2.414c0.888,7.056,3.88,13.455,8.323,18.556c5.327,6.116,10.594,12.285,15.661,18.618L50,95    l10.729-13.411c5.072-6.34,10.348-12.511,15.677-18.637c4.433-5.096,7.418-11.485,8.307-18.53    c-1.94-1.377-13.797-2.187-27.206-2.412c-0.887,3.32-3.907,5.768-7.506,5.768C46.397,47.778,43.375,45.324,42.491,42L42.491,42z     M50,71.111c-14.517,0-26.989-10.072-30.264-23.912c3.166-0.48,9.435-1.033,20.227-1.263c2.06,3.482,5.845,5.731,10.037,5.731    c4.184,0,7.966-2.243,10.028-5.718c10.777,0.243,17.05,0.796,20.23,1.274C76.975,61.052,64.508,71.111,50,71.111L50,71.111z"/></g></g><text x="0" y="115" fill="#000000" font-size="5px" font-weight="bold" font-family="'Helvetica Neue', Helvetica, Arial-Unicode, Arial, Sans-serif">Created by Curve</text><text x="0" y="120" fill="#000000" font-size="5px" font-weight="bold" font-family="'Helvetica Neue', Helvetica, Arial-Unicode, Arial, Sans-serif">from the Noun Project</text></svg>